<svg width="24" height="24" viewBox="0 0 24 24" fill="none" xmlns="http://www.w3.org/2000/svg">
<path d="M14.15 21C14.0167 21 13.8875 20.975 13.7625 20.925C13.6375 20.875 13.525 20.8 13.425 20.7L7.4 14.425C7.28333 14.3083 7.1875 14.15 7.1125 13.95C7.0375 13.75 7 13.5667 7 13.4C7 13.0167 7.1375 12.6875 7.4125 12.4125C7.6875 12.1375 8.01667 12 8.4 12H10.5C11.3833 12 12.1458 11.7125 12.7875 11.1375C13.4292 10.5625 13.8167 9.85 13.95 9H7C6.71667 9 6.47917 8.90417 6.2875 8.7125C6.09583 8.52083 6 8.28333 6 8C6 7.71667 6.09583 7.47917 6.2875 7.2875C6.47917 7.09583 6.71667 7 7 7H13.65C13.3667 6.41667 12.9458 5.9375 12.3875 5.5625C11.8292 5.1875 11.2 5 10.5 5H7C6.71667 5 6.47917 4.90417 6.2875 4.7125C6.09583 4.52083 6 4.28333 6 4C6 3.71667 6.09583 3.47917 6.2875 3.2875C6.47917 3.09583 6.71667 3 7 3H17C17.2833 3 17.5208 3.09583 17.7125 3.2875C17.9042 3.47917 18 3.71667 18 4C18 4.28333 17.9042 4.52083 17.7125 4.7125C17.5208 4.90417 17.2833 5 17 5H14.75C14.9833 5.28333 15.1917 5.59167 15.375 5.925C15.5583 6.25833 15.7 6.61667 15.8 7H17C17.2833 7 17.5208 7.09583 17.7125 7.2875C17.9042 7.47917 18 7.71667 18 8C18 8.28333 17.9042 8.52083 17.7125 8.7125C17.5208 8.90417 17.2833 9 17 9H15.975C15.8417 10.4167 15.2583 11.6042 14.225 12.5625C13.1917 13.5208 11.95 14 10.5 14H9.775L14.875 19.3C15.175 19.6167 15.2375 19.9792 15.0625 20.3875C14.8875 20.7958 14.5833 21 14.15 21Z" fill="#96A4A9"/>
</svg>
