<svg width="24" height="24" viewBox="0 0 24 24" fill="none" xmlns="http://www.w3.org/2000/svg">
<g clip-path="url(#clip0_209_277)">
<path fill-rule="evenodd" clip-rule="evenodd" d="M17.2031 12L16.6711 15.4687H13.875V23.8542C19.6118 22.954 24 17.9895 24 12C24 5.37257 18.6274 -3.8147e-06 12 -3.8147e-06C5.37258 -3.8147e-06 0 5.37257 0 12C0 17.9895 4.38823 22.954 10.125 23.8542V15.4687H7.07812V12H10.125V9.35624C10.125 6.34874 11.9165 4.68749 14.6576 4.68749C15.9705 4.68749 17.3438 4.92187 17.3438 4.92187V7.87499H15.8306C14.3399 7.87499 13.875 8.8 13.875 9.74898V12H17.2031Z" fill="#96A4A9"/>
</g>
<defs>
<clipPath id="clip0_209_277">
<rect width="24" height="24" fill="white"/>
</clipPath>
</defs>
</svg>
