<svg width="25" height="24" viewBox="0 0 25 24" fill="none" xmlns="http://www.w3.org/2000/svg">
<g clip-path="url(#clip0_209_284)">
<path d="M7.55866 0.0840014C6.28186 0.144241 5.40994 0.348001 4.6477 0.647521C3.85882 0.954961 3.19018 1.36752 2.5249 2.0352C1.85962 2.70288 1.44994 3.372 1.14466 4.16208C0.849224 4.926 0.649064 5.79864 0.592664 7.07616C0.536264 8.35368 0.523784 8.76432 0.530024 12.023C0.536264 15.2818 0.550664 15.6902 0.612584 16.9704C0.673544 18.247 0.876584 19.1186 1.1761 19.8811C1.48402 20.67 1.8961 21.3384 2.56402 22.0039C3.23194 22.6694 3.90058 23.0782 4.69258 23.3839C5.45578 23.6789 6.32866 23.88 7.60594 23.9359C8.88322 23.9918 9.29434 24.0048 12.5521 23.9986C15.8099 23.9923 16.22 23.9779 17.4999 23.9172C18.7799 23.8565 19.647 23.652 20.4097 23.3539C21.1986 23.0453 21.8675 22.6339 22.5325 21.9658C23.1975 21.2976 23.607 20.628 23.912 19.8374C24.2077 19.0742 24.4086 18.2014 24.464 16.925C24.5199 15.6442 24.5331 15.2352 24.5269 11.977C24.5207 8.71872 24.506 8.31024 24.4453 7.03056C24.3846 5.75088 24.1813 4.88184 23.882 4.11888C23.5736 3.33 23.162 2.66208 22.4943 1.99608C21.8267 1.33008 21.1566 0.920881 20.3663 0.616561C19.6026 0.321121 18.7302 0.119761 17.4529 0.0645614C16.1756 0.00936143 15.7645 -0.00479857 12.5055 0.00144143C9.24658 0.00768143 8.83858 0.0216014 7.55866 0.0840014ZM7.69882 21.7771C6.52882 21.7262 5.89354 21.5318 5.47018 21.3691C4.90954 21.1531 4.51018 20.892 4.08826 20.4742C3.66634 20.0563 3.40714 19.6555 3.18826 19.0961C3.02386 18.6727 2.82586 18.0382 2.77114 16.8682C2.71162 15.6036 2.69914 15.2239 2.69218 12.0202C2.68522 8.8164 2.69746 8.4372 2.7529 7.17216C2.80282 6.00312 2.99842 5.36712 3.1609 4.944C3.3769 4.38264 3.63706 3.984 4.05586 3.56232C4.47466 3.14064 4.87426 2.88096 5.43418 2.66208C5.85706 2.49696 6.49162 2.30064 7.66114 2.24496C8.92666 2.18496 9.30586 2.17296 12.5091 2.166C15.7124 2.15904 16.0926 2.17104 17.3586 2.22672C18.5276 2.2776 19.1639 2.47128 19.5865 2.63472C20.1474 2.85072 20.5465 3.11016 20.9682 3.52968C21.3899 3.9492 21.6498 4.34736 21.8687 4.90848C22.034 5.33016 22.2303 5.96448 22.2855 7.13472C22.3458 8.40024 22.3595 8.77968 22.3652 11.9827C22.371 15.1858 22.3597 15.5662 22.3043 16.8307C22.2531 18.0007 22.0592 18.6362 21.8963 19.0601C21.6803 19.6205 21.4199 20.0201 21.0008 20.4415C20.5818 20.863 20.1827 21.1226 19.6225 21.3415C19.2001 21.5064 18.5648 21.7032 17.3963 21.7589C16.1307 21.8184 15.7515 21.8309 12.5471 21.8378C9.34258 21.8448 8.96458 21.8318 7.69906 21.7771M17.4815 5.58648C17.4819 5.87131 17.5669 6.14959 17.7255 6.38615C17.8842 6.6227 18.1094 6.80689 18.3727 6.91543C18.6361 7.02396 18.9257 7.05197 19.2049 6.9959C19.4842 6.93984 19.7405 6.80221 19.9416 6.60044C20.1426 6.39867 20.2793 6.14182 20.3343 5.86236C20.3894 5.5829 20.3603 5.2934 20.2508 5.03047C20.1413 4.76753 19.9563 4.54298 19.7191 4.3852C19.482 4.22742 19.2034 4.14351 18.9186 4.14408C18.5368 4.14484 18.1709 4.29722 17.9014 4.56771C17.6319 4.8382 17.4808 5.20465 17.4815 5.58648ZM6.36706 12.012C6.37378 15.4152 9.13762 18.1678 12.5401 18.1613C15.9426 18.1548 18.6971 15.3912 18.6906 11.988C18.6841 8.5848 15.9195 5.83152 12.5166 5.83824C9.11362 5.84496 6.36058 8.60928 6.36706 12.012ZM8.5285 12.0077C8.52694 11.2165 8.76001 10.4427 9.19824 9.78403C9.63647 9.12535 10.2602 8.61142 10.9905 8.30721C11.7208 8.00301 12.5249 7.92221 13.3012 8.07501C14.0774 8.22782 14.7909 8.60738 15.3515 9.16569C15.912 9.724 16.2944 10.436 16.4502 11.2116C16.6061 11.9873 16.5285 12.7917 16.2272 13.5232C15.9259 14.2547 15.4144 14.8805 14.7575 15.3213C14.1005 15.7621 13.3276 15.9983 12.5365 15.9998C12.0112 16.0009 11.4908 15.8986 11.0051 15.6985C10.5193 15.4985 10.0777 15.2047 9.70556 14.834C9.33337 14.4633 9.03785 14.0229 8.83589 13.5379C8.63393 13.053 8.52948 12.533 8.5285 12.0077Z" fill="#96A4A9"/>
</g>
<defs>
<clipPath id="clip0_209_284">
<rect width="24" height="24" fill="white" transform="translate(0.528595)"/>
</clipPath>
</defs>
</svg>
