<svg width="177" height="40" viewBox="0 0 177 40" fill="none" xmlns="http://www.w3.org/2000/svg">
<path d="M33.2388 30.0654C33.7031 30.343 34.11 30.5854 34.514 30.8307C34.6109 30.8895 34.7005 30.9615 34.7931 31.029C34.9076 31.1113 34.9121 31.2156 34.846 31.3272C34.6814 31.6049 34.5154 31.8811 34.348 32.1558C33.5929 33.403 32.8393 34.6502 32.0827 35.8959C31.4231 36.9815 30.7591 38.0642 30.0995 39.1483C29.9512 39.3907 29.8072 39.636 29.6662 39.8828C29.5707 40.0474 29.4208 40.0253 29.2872 39.899C29.2607 39.874 29.2446 39.8373 29.2269 39.8035C28.6775 38.831 28.134 37.8571 27.5802 36.889C26.7325 35.4082 25.8746 33.9333 25.0255 32.4525C24.0912 30.8234 23.1628 29.1928 22.2329 27.5621C21.9611 27.0847 21.6967 26.6043 21.425 26.1284C21.3882 26.0637 21.3353 26.0064 21.281 25.9565C21.2193 25.9021 21.1356 25.8933 21.0753 25.9506C20.9945 26.0285 20.9152 26.1152 20.8579 26.2106C20.2409 27.2316 19.6298 28.2555 19.0128 29.2765C17.9448 31.0452 16.8725 32.811 15.8015 34.5767C15.6737 34.7868 15.5327 34.9895 15.4064 35.2011C15.3006 35.3773 15.3623 35.5007 15.5621 35.5096C15.9602 35.5272 16.3612 35.5624 16.7564 35.5389C17.2 35.5125 17.6202 35.6476 18.055 35.6609C18.1858 35.6653 18.2724 35.7563 18.2724 35.8812C18.2754 36.3557 18.2724 36.8302 18.2548 37.3047C18.2475 37.5118 18.1035 37.6455 17.8773 37.6587C17.651 37.6734 17.4189 37.6778 17.1956 37.6396C16.9679 37.6014 16.7461 37.5868 16.5184 37.6117C16.3877 37.6264 16.2481 37.6367 16.1203 37.6088C15.6326 37.4971 15.1375 37.5397 14.6454 37.5236C13.7552 37.4957 12.8606 37.5015 11.9762 37.4149C11.0492 37.3253 10.1238 37.2974 9.19387 37.2797C8.75757 37.2724 8.32274 37.2371 7.88791 37.2107C7.76598 37.2033 7.72926 37.1343 7.76451 37.0138C7.80271 36.886 7.85412 36.7685 7.92611 36.6525C8.62977 35.5286 9.32902 34.4004 10.0253 33.2722C11.0008 31.693 11.9747 30.1124 12.9472 28.5302C13.8404 27.0774 14.7306 25.6216 15.6208 24.1672C15.8089 23.8602 15.9969 23.5546 16.1761 23.2417C16.2525 23.1081 16.1732 22.9714 16.0175 22.9582C15.8853 22.9465 15.7516 22.9479 15.6194 22.9479C12.4654 22.9479 9.31286 22.9479 6.15887 22.9479C5.98847 22.9479 5.81659 22.9523 5.64765 22.9685C5.53747 22.9788 5.44933 23.1228 5.49194 23.2256C5.55804 23.3828 5.63443 23.5355 5.71523 23.6869C5.98993 24.2054 6.27052 24.721 6.54522 25.2396C6.64365 25.4262 6.62455 25.5246 6.45414 25.6216C6.02666 25.8654 5.59477 26.1019 5.15847 26.3326C5.01744 26.4075 4.90433 26.3766 4.80443 26.2532C4.73392 26.1651 4.66634 26.0711 4.61346 25.9712C4.02291 24.8518 3.43971 23.7295 2.84769 22.6101C2.43196 21.8241 2.00301 21.0456 1.58433 20.2611C1.17448 19.4928 0.770495 18.7216 0.360638 17.9533C0.253399 17.7535 0.125594 17.564 0.0168866 17.3642C-0.0257151 17.2863 0.0168867 17.2187 0.0932759 17.1806C0.235771 17.1071 0.390018 17.1291 0.541328 17.1306C1.4154 17.1365 2.288 17.1497 3.16206 17.1556C5.02332 17.1688 6.88457 17.1776 8.74582 17.1894C8.82221 17.1894 8.90154 17.1776 8.97352 17.1952C9.76238 17.3789 10.5615 17.2804 11.3563 17.2907C12.7989 17.3069 14.2385 17.4274 15.6811 17.3745C15.7193 17.373 15.7575 17.373 15.7957 17.3745C16.7094 17.4083 16.4949 17.232 16.2173 16.6928C15.9235 16.1214 15.6106 15.5602 15.3079 14.9932C15.0318 14.4761 14.7556 13.9605 14.4824 13.4419C13.9094 12.3548 13.338 11.2648 12.7651 10.1777C12.6064 9.8751 12.4404 9.57689 12.2788 9.27574C12.0276 8.80859 11.7808 8.33997 11.5267 7.87429C11.4723 7.77587 11.4092 7.67891 11.3342 7.59518C11.2623 7.51732 11.1594 7.51145 11.0845 7.59224C10.9949 7.6892 10.9126 7.7935 10.8421 7.90514C10.4969 8.44868 10.1576 8.99663 9.8138 9.54163C9.68453 9.7473 9.4818 9.80165 9.27761 9.67238C8.89419 9.42852 8.51959 9.17144 8.13911 8.92465C8.02453 8.84973 8.01131 8.74102 8.02159 8.62644C8.03628 8.46778 8.14352 8.3532 8.22579 8.22539C8.86334 7.23821 9.49796 6.24809 10.134 5.2609C10.8832 4.10038 11.6369 2.94132 12.3861 1.78079C12.674 1.33567 12.9546 0.886152 13.241 0.439569C13.313 0.327924 13.3865 0.216278 13.4731 0.117853C13.6303 -0.0613677 13.7141 -0.0363959 13.836 0.194241C14.262 0.996327 14.691 1.79841 15.1199 2.59903C15.9337 4.118 16.7476 5.6355 17.5614 7.153C18.4737 8.85413 19.386 10.5567 20.2997 12.2579C20.6141 12.8411 20.9314 13.4228 21.2487 14.0045C21.2854 14.0706 21.3207 14.1382 21.3647 14.1984C21.4558 14.3204 21.6115 14.3101 21.6879 14.1749C21.8657 13.8606 22.0405 13.5462 22.2079 13.2274C22.5958 12.49 22.9704 11.7481 23.3699 11.0165C24.103 9.67091 24.7861 8.29591 25.4942 6.93706C25.7483 6.45081 26.0171 5.97191 26.2786 5.49007C26.3241 5.40634 26.3785 5.32848 26.4167 5.24181C26.4799 5.10078 26.4079 4.96563 26.261 4.94653C26.167 4.93478 26.0715 4.93037 25.9775 4.93184C25.3326 4.94506 24.6862 4.89805 24.0413 4.9671C23.9282 4.97885 23.8136 4.97591 23.7005 4.96857C23.5448 4.95828 23.4625 4.87749 23.4522 4.71296C23.4405 4.52345 23.4434 4.33395 23.4434 4.14298C23.4419 3.85798 23.436 3.57299 23.4463 3.288C23.4566 2.98685 23.5271 2.91781 23.8209 2.91487C24.3527 2.909 24.8845 2.91341 25.4163 2.91487C25.8908 2.91487 26.3668 2.91634 26.8412 2.91487C27.1821 2.91341 27.5214 2.9325 27.8593 2.83555C28.0179 2.79001 28.1986 2.81351 28.369 2.81351C29.3004 2.81204 30.2303 2.81792 31.1616 2.81057C31.9211 2.80469 32.6806 2.7856 33.4401 2.77238C33.5356 2.77091 33.6296 2.76797 33.7251 2.77532C33.8455 2.78413 33.9219 2.91193 33.8705 3.02799C33.7868 3.21749 33.7001 3.40699 33.6017 3.59062C32.7673 5.14191 31.9299 6.69173 31.0941 8.24155C30.4213 9.49022 29.7514 10.7404 29.0756 11.989C28.3911 13.2553 27.7021 14.5172 27.019 15.7835C26.7854 16.2154 26.5577 16.6517 26.333 17.0895C26.2287 17.2922 26.3051 17.4215 26.5401 17.4229C27.3187 17.4259 28.0973 17.4185 28.8758 17.4127C29.0462 17.4112 29.2181 17.3994 29.3885 17.398C31.7816 17.3892 34.1746 17.3818 36.5691 17.373C37.2654 17.3701 37.2669 17.3701 36.9202 16.7604C36.5926 16.1846 36.2621 15.6102 35.9316 15.0358C35.8096 14.8228 35.8126 14.7229 35.9918 14.5995C36.4296 14.2983 36.8864 14.031 37.3712 13.8106C37.474 13.7636 37.5592 13.7842 37.6151 13.8753C37.7825 14.15 37.9456 14.4276 38.1057 14.7067C38.8858 16.0685 39.6629 17.4332 40.4444 18.795C41.1348 19.9937 41.8312 21.1895 42.5231 22.3882C42.5789 22.4852 42.6244 22.591 42.6626 22.6967C42.6832 22.7555 42.6421 22.8143 42.5877 22.8304C42.4981 22.8554 42.4041 22.8715 42.3101 22.873C40.9248 22.9009 39.5409 22.9259 38.1557 22.9494C37.8516 22.9538 37.5475 22.9494 37.2434 22.9494C36.9775 22.9494 36.7145 22.9406 36.4531 23.0199C36.3297 23.0581 36.1901 23.0508 36.0579 23.0508C34.1012 23.0655 32.1459 23.0728 30.1891 23.0904C29.0125 23.1007 27.8358 23.1272 26.6576 23.1477C26.5812 23.1492 26.5048 23.1536 26.4314 23.1639C26.3051 23.183 26.2331 23.3034 26.2815 23.4121C26.3051 23.4636 26.3359 23.512 26.3638 23.5605C27.47 25.4791 28.5776 27.3991 29.6838 29.3176C30.2229 30.2534 30.7621 31.1892 31.3027 32.1235C31.3497 32.2057 31.3952 32.2895 31.4496 32.3673C31.5524 32.5142 31.7125 32.5127 31.8198 32.3541C31.9373 32.1822 32.0386 32.0001 32.1474 31.8223C32.4529 31.3214 32.7599 30.8219 33.067 30.3224C33.114 30.246 33.1683 30.1711 33.2388 30.0654ZM13.7052 21.0735C13.7052 21.0852 13.7052 21.0955 13.7052 21.1072C13.952 21.1072 14.1988 21.1043 14.4456 21.1072C16.0777 21.1308 17.7113 21.05 19.3419 21.1704C19.7561 21.2013 19.8017 21.2762 19.5784 21.6493C19.4227 21.9093 19.267 22.1708 19.1083 22.4294C18.2827 23.7691 17.4571 25.1103 16.6301 26.4486C15.7119 27.9323 14.7894 29.4116 13.8742 30.8954C13.197 31.9927 12.5271 33.093 11.8528 34.1918C11.6839 34.4665 11.5091 34.7369 11.346 35.0145C11.2255 35.2202 11.321 35.3862 11.5663 35.4038C11.8499 35.4243 12.1363 35.4288 12.4184 35.4567C12.7563 35.4905 12.984 35.3847 13.1632 35.0718C13.5951 34.3152 14.0696 33.5807 14.5205 32.8345C15.2066 31.6989 15.8838 30.5575 16.5713 29.4219C17.4748 27.9294 18.3855 26.4413 19.2919 24.9517C19.834 24.0615 20.3761 23.1698 20.9181 22.2781C20.9872 22.165 21.0371 22.0415 21.1547 21.9622C21.234 21.9093 21.3589 21.9093 21.4103 21.9828C21.4529 22.0445 21.4837 22.115 21.5219 22.1796C22.2182 23.396 22.9145 24.6123 23.6109 25.8302C24.6083 27.5754 25.6029 29.3206 26.6003 31.0643C27.4377 32.5289 28.2765 33.9921 29.1153 35.4552C29.2093 35.6197 29.3033 35.7843 29.4091 35.9414C29.484 36.0516 29.6221 36.0516 29.6926 35.94C29.9262 35.5713 30.1568 35.2011 30.3742 34.8235C30.458 34.6781 30.3904 34.5371 30.3081 34.3975C30.0657 33.9906 29.8366 33.5763 29.5986 33.165C28.7348 31.6725 27.871 30.1799 27.0072 28.6874C25.6881 26.406 24.3689 24.1246 23.0526 21.8418C22.9674 21.6949 22.8925 21.5406 22.8205 21.3864C22.7809 21.2997 22.8543 21.1969 22.9542 21.1836C22.9924 21.1792 23.0291 21.1734 23.0673 21.1734C23.9208 21.169 24.7743 21.1381 25.6278 21.119C27.7344 21.0705 29.8439 21.0837 31.952 21.0735C32.0666 21.0735 32.1797 21.0764 32.2943 21.0735C32.3883 21.0705 32.4896 21.0823 32.5763 21.0514C32.854 20.9559 33.1389 20.9824 33.4239 20.9809C35.2279 20.9648 37.0319 20.9486 38.8343 20.9324C38.9107 20.9324 38.9871 20.9324 39.062 20.9236C39.2325 20.906 39.3059 20.787 39.2266 20.6504C39.0283 20.3052 38.8123 19.9702 38.6272 19.6191C38.5229 19.4208 38.3745 19.3532 38.1674 19.3562C38.0352 19.3591 37.9015 19.3547 37.7678 19.3562C36.5339 19.3665 35.2999 19.3767 34.0644 19.387C32.6777 19.3973 31.2909 19.3958 29.9056 19.4223C28.2941 19.4517 26.6811 19.343 25.0696 19.4987C24.4291 19.5604 23.7783 19.509 23.1334 19.509C23.0761 19.509 23.0188 19.506 22.963 19.5001C22.8602 19.4884 22.7897 19.3885 22.8235 19.2989C22.8499 19.2284 22.8837 19.1608 22.9204 19.0947C23.3215 18.3426 23.7225 17.5904 24.1265 16.8397C24.9638 15.2899 25.8071 13.7416 26.6429 12.1903C27.326 10.9225 28.0003 9.64887 28.6819 8.37964C29.13 7.54523 29.5854 6.71377 30.032 5.87936C30.1833 5.59584 30.3228 5.30497 30.4609 5.01264C30.5079 4.91274 30.4477 4.81285 30.3419 4.80844C30.0569 4.79963 29.7705 4.82019 29.4884 4.78934C29.0727 4.7438 28.7892 4.89071 28.6261 5.27559C28.5967 5.34463 28.5409 5.40046 28.5042 5.46657C27.7961 6.76518 27.091 8.0638 26.3829 9.36241C25.8026 10.4275 25.2224 11.491 24.6377 12.5531C23.6505 14.3468 22.6619 16.1375 21.6732 17.9298C21.6086 18.0458 21.5498 18.1648 21.4778 18.275C21.4279 18.3514 21.3383 18.3543 21.2825 18.297C21.1914 18.2015 21.1091 18.0943 21.046 17.9797C20.9079 17.7314 20.7889 17.4729 20.6537 17.2232C19.8458 15.7218 19.0319 14.2234 18.2254 12.7206C17.5365 11.4367 16.8578 10.1454 16.1703 8.86001C15.4637 7.54083 14.7527 6.22311 14.0416 4.9054C13.8977 4.63804 13.7493 4.37361 13.5936 4.1136C13.501 3.95935 13.3762 3.94906 13.2807 4.08862C13.0354 4.45 12.8018 4.81726 12.5682 5.18598C12.505 5.28734 12.508 5.40634 12.5535 5.51651C12.5976 5.62081 12.6505 5.72217 12.7034 5.82354C13.3336 7.01198 13.9623 8.19895 14.5955 9.38592C15.1302 10.3893 15.6708 11.3897 16.207 12.393C16.5551 13.0438 16.9033 13.696 17.2485 14.3497C18.0447 15.8584 18.838 17.3686 19.6372 18.8758C19.8942 19.3621 19.8707 19.4179 19.3301 19.4164C18.1534 19.412 16.9753 19.3958 15.7986 19.3885C13.8051 19.3767 11.8102 19.3679 9.81527 19.3562C9.66396 19.3547 9.50531 19.3782 9.36134 19.343C8.91035 19.2343 8.45495 19.2724 7.99956 19.268C7.37228 19.2636 6.74648 19.268 6.11921 19.2666C5.987 19.2666 5.85038 19.2769 5.72257 19.2489C5.02625 19.0991 4.32259 19.2063 3.62187 19.1799C3.44559 19.1725 3.35304 19.3371 3.43824 19.5001C3.65713 19.9203 3.88923 20.3345 4.11546 20.7503C4.19626 20.8986 4.32112 20.9677 4.48565 20.9736C4.61787 20.978 4.75155 20.9794 4.88376 20.9794C5.90914 20.9794 6.93452 20.9794 7.96136 20.9794C8.11267 20.9794 8.27426 20.9545 8.41529 20.9956C8.7517 21.0955 9.09251 21.0705 9.43332 21.0705C10.6497 21.0735 11.8646 21.072 13.0809 21.072C13.288 21.0735 13.4966 21.0735 13.7052 21.0735Z" fill="#F15C48"/>
<path d="M82.2367 13.0569C84.8192 13.1509 87.08 14.3291 88.6049 16.7853C89.4643 18.1676 89.7522 19.6954 89.6215 21.3172C89.3379 24.8296 86.5688 27.5062 83.2782 28.0571C79.3971 28.7079 76.2445 26.5205 74.9533 23.8219C73.7222 21.2482 74.0131 17.7475 76.3812 15.3912C77.9266 13.8516 79.7819 13.0819 82.2367 13.0569ZM85.7139 20.5577C85.7388 19.3149 85.2467 18.2646 84.5577 17.5198C83.124 15.967 80.5282 16.0508 79.1664 17.6961C77.9133 19.2106 77.9442 21.6991 78.8653 23.1564C80.2417 25.335 83.4457 25.3937 84.903 23.3224C85.47 22.513 85.7153 21.6184 85.7139 20.5577Z" fill="#45494D"/>
<path d="M49.473 27.7634C49.5303 27.5225 49.6567 27.3785 49.758 27.2213C51.9234 23.8499 54.0902 20.4815 56.257 17.11C56.3495 16.9661 56.4406 16.8221 56.5214 16.6723C56.5655 16.5915 56.5273 16.518 56.4362 16.5107C56.2658 16.496 56.0954 16.4945 55.925 16.4945C54.4427 16.4931 52.962 16.4945 51.4797 16.4931C51.3284 16.4931 51.1756 16.4916 51.0243 16.4857C50.9186 16.4813 50.848 16.4255 50.8363 16.3153C50.829 16.2404 50.8289 16.164 50.8289 16.0876C50.8289 15.309 50.8289 14.5304 50.8289 13.7504C50.8289 13.674 50.8319 13.5991 50.8392 13.5227C50.848 13.4404 50.8951 13.3817 50.9803 13.3714C51.0743 13.3611 51.1698 13.3582 51.2638 13.3567C55.0245 13.3567 58.7866 13.3567 62.5473 13.3567C62.6237 13.3567 62.6987 13.3596 62.775 13.364C62.8529 13.3699 62.897 13.4536 62.8544 13.5271C62.7677 13.674 62.6766 13.8194 62.5841 13.9619C60.4393 17.301 58.2945 20.6401 56.1497 23.9792C56.0572 24.1232 55.9617 24.2657 55.875 24.4111C55.7972 24.5418 55.8413 24.6358 55.9823 24.6417C56.1336 24.6476 56.2864 24.6476 56.4377 24.6476C58.1285 24.6476 59.8194 24.6461 61.5102 24.6491C61.6968 24.6491 61.8878 24.6153 62.0684 24.6902C62.1419 25.1133 62.1507 27.2331 62.0802 27.7531C61.6571 27.8148 50.1106 27.8251 49.473 27.7634Z" fill="#45494D"/>
<path d="M154.759 13.4022C154.776 13.4522 154.806 13.505 154.806 13.5594C154.811 14.4702 154.814 15.3825 154.811 16.2933C154.811 16.493 154.771 16.5298 154.582 16.5327C154.184 16.5386 153.784 16.5356 153.386 16.5356C152.418 16.5356 151.448 16.5356 150.48 16.5356C150.348 16.5356 150.214 16.5327 150.082 16.5386C149.878 16.5474 149.822 16.6003 149.821 16.8206C149.816 17.4846 149.821 18.1501 149.823 18.8141C149.823 18.9448 149.887 19.0271 150.028 19.03C150.179 19.033 150.332 19.0359 150.483 19.0359C151.623 19.0359 152.762 19.0359 153.902 19.0359C154.053 19.0359 154.206 19.0359 154.357 19.0433C154.464 19.0491 154.526 19.1123 154.536 19.221C154.538 19.2401 154.541 19.2592 154.541 19.2783C154.541 20.1524 154.541 21.025 154.541 21.899C154.541 22.0357 154.474 22.112 154.338 22.1165C154.186 22.1209 154.034 22.1209 153.882 22.1209C152.742 22.1209 151.604 22.1209 150.464 22.1209C150.313 22.1209 150.16 22.1223 150.009 22.1297C149.897 22.1341 149.84 22.2075 149.828 22.3104C149.816 22.4044 149.819 22.4999 149.819 22.5954C149.819 23.1653 149.816 23.7353 149.825 24.3038C149.828 24.5168 149.887 24.5653 150.101 24.5756C150.252 24.583 150.405 24.58 150.557 24.58C151.771 24.58 152.988 24.58 154.203 24.58C154.354 24.58 154.507 24.5815 154.658 24.5874C154.74 24.5918 154.806 24.6344 154.806 24.724C154.808 25.6921 154.808 26.6601 154.806 27.6282C154.806 27.7384 154.736 27.7957 154.624 27.7972C154.492 27.7986 154.358 27.8016 154.226 27.8016C151.682 27.8016 149.137 27.8016 146.593 27.8016C146.479 27.8016 146.365 27.8045 146.251 27.7986C146.036 27.7884 146.004 27.7546 145.995 27.5195C145.991 27.3873 145.994 27.2536 145.994 27.1214C145.994 22.754 145.994 18.3866 145.994 14.0192C145.994 13.887 145.991 13.7533 145.997 13.6211C146.007 13.4066 146.045 13.3714 146.276 13.3626C146.371 13.3581 146.465 13.3611 146.561 13.3611C149.124 13.3611 151.688 13.3611 154.251 13.3626C154.416 13.3611 154.589 13.3302 154.759 13.4022Z" fill="#45494D"/>
<path d="M103.07 23.2138C103.272 23.2931 103.373 23.4621 103.507 23.5928C103.93 24.0071 104.379 24.3831 104.899 24.6696C105.478 24.9884 106.094 25.1485 106.759 25.0941C107.048 25.0706 107.319 24.9942 107.567 24.8459C108.043 24.5609 108.303 24.1525 108.296 23.581C108.287 22.9949 108.046 22.563 107.516 22.2956C107.054 22.065 106.565 21.9196 106.073 21.7727C105.637 21.6419 105.197 21.5185 104.771 21.3599C104.435 21.235 104.107 21.0778 103.79 20.9089C102.715 20.336 102.146 19.4208 102.033 18.2191C101.974 17.5904 102.011 16.966 102.189 16.3564C102.665 14.7214 103.755 13.6666 105.375 13.2465C107.385 12.725 109.29 13.0966 111.057 14.1778C111.235 14.2865 111.266 14.3526 111.203 14.4951C110.827 15.3442 110.446 16.1919 110.067 17.0395C110.061 17.0542 110.039 17.0615 110.019 17.0747C109.832 17.0233 109.704 16.875 109.547 16.7707C108.92 16.3535 108.247 16.067 107.486 16.0156C107.063 15.9877 106.65 16.0303 106.276 16.2506C105.759 16.5532 105.568 17.0689 105.762 17.6153C105.856 17.8798 106.039 18.0649 106.276 18.2015C106.572 18.3734 106.894 18.4879 107.223 18.5849C107.733 18.7347 108.244 18.8772 108.751 19.0374C109.203 19.1799 109.64 19.3649 110.067 19.5735C110.881 19.9731 111.425 20.6122 111.692 21.4627C112.506 24.0438 111.519 27.2698 107.946 28.0278C106.912 28.2467 105.867 28.2276 104.833 28.0175C103.533 27.7516 102.43 27.1038 101.463 26.2091C101.322 26.0784 101.316 26.0417 101.422 25.8683C101.933 25.0236 102.449 24.1819 102.963 23.3401C102.992 23.2916 103.037 23.2535 103.07 23.2138Z" fill="#45494D"/>
<path d="M133.732 13.3596C133.732 14.5319 133.733 15.6278 133.73 16.7046C133.494 16.7942 133.303 16.7604 133.115 16.7619C132.336 16.7663 131.558 16.7619 130.779 16.7663C130.55 16.7677 130.519 16.8045 130.51 17.0351C130.504 17.1864 130.507 17.3392 130.507 17.4905C130.507 20.7194 130.507 23.9483 130.507 27.1758C130.507 27.8618 130.563 27.7986 129.909 27.8001C128.96 27.8016 128.01 27.8016 127.061 27.8001C126.948 27.8001 126.833 27.7986 126.72 27.7883C126.635 27.781 126.585 27.7208 126.579 27.6385C126.569 27.4681 126.564 27.2977 126.564 27.1273C126.563 23.8984 126.564 20.6695 126.563 17.442C126.563 16.6825 126.619 16.7663 125.897 16.7633C125.214 16.7604 124.53 16.7633 123.847 16.7619C123.734 16.7619 123.619 16.7619 123.506 16.753C123.396 16.7442 123.344 16.6722 123.338 16.565C123.337 16.5268 123.334 16.4886 123.334 16.4519C123.334 15.522 123.331 14.5906 123.335 13.6608C123.337 13.4037 123.377 13.3714 123.635 13.3611C123.731 13.3567 123.825 13.3596 123.92 13.3596C127.015 13.3596 130.112 13.3596 133.207 13.3596C133.359 13.3596 133.508 13.3596 133.732 13.3596Z" fill="#45494D"/>
<path d="M171.631 13.4081C171.727 13.6006 171.681 13.8136 171.681 14.0192C171.684 17.229 171.683 20.4389 171.684 23.6472C171.684 23.8176 171.681 23.9895 171.688 24.1599C171.697 24.3729 171.735 24.4155 171.966 24.4184C172.498 24.4258 173.03 24.4228 173.561 24.4228C174.397 24.4228 175.233 24.4228 176.068 24.4228C176.181 24.4228 176.295 24.4243 176.408 24.4361C176.492 24.4449 176.542 24.5022 176.551 24.5844C176.56 24.6594 176.561 24.7358 176.561 24.8107C176.561 25.6847 176.561 26.5573 176.561 27.4314C176.561 27.4887 176.56 27.546 176.558 27.6018C176.552 27.7443 176.467 27.7987 176.335 27.7987C176.259 27.7987 176.184 27.8001 176.107 27.8001C173.486 27.8001 170.866 27.8001 168.245 27.8001C168.169 27.8001 168.092 27.8016 168.017 27.7987C167.803 27.7884 167.771 27.7546 167.762 27.5181C167.757 27.3859 167.76 27.2522 167.76 27.12C167.76 22.7526 167.76 18.3837 167.76 14.0163C167.76 13.865 167.759 13.7122 167.765 13.5609C167.771 13.4228 167.851 13.3596 167.986 13.3611C169.182 13.367 170.378 13.3743 171.574 13.3817C171.591 13.3817 171.608 13.3964 171.631 13.4081Z" fill="#45494D"/>
</svg>
