<svg width="24" height="27" viewBox="0 0 24 27" fill="none" xmlns="http://www.w3.org/2000/svg">
<path d="M24 12C24 23.8341 19.6754 22.8819 14 23.8341C13.3496 23.9432 12.6814 27 12 27C11.3186 27 10.6504 23.9432 10 23.8341C4.32457 22.8819 0 22.5 0 12C0 5.37258 0.5 0 12 0C24 0 24 5.37258 24 12Z" fill="#F15824"/>
<path d="M15.9717 15.0196C16.1109 15.1029 16.233 15.1756 16.3542 15.2492C16.3833 15.2668 16.4102 15.2884 16.4379 15.3087C16.4723 15.3334 16.4736 15.3647 16.4538 15.3982C16.4044 15.4815 16.3546 15.5643 16.3044 15.6467C16.0779 16.0209 15.8518 16.3951 15.6248 16.7688C15.4269 17.0945 15.2277 17.4193 15.0299 17.7445C14.9853 17.8172 14.9422 17.8908 14.8999 17.9648C14.8712 18.0142 14.8263 18.0076 14.7861 17.9697C14.7782 17.9622 14.7734 17.9512 14.7681 17.9411C14.6033 17.6493 14.4402 17.3571 14.274 17.0667C14.0198 16.6225 13.7624 16.18 13.5077 15.7358C13.2274 15.247 12.9488 14.7578 12.6699 14.2686C12.5883 14.1254 12.509 13.9813 12.4275 13.8385C12.4165 13.8191 12.4006 13.8019 12.3843 13.7869C12.3658 13.7706 12.3407 13.768 12.3226 13.7852C12.2984 13.8085 12.2746 13.8345 12.2574 13.8632C12.0723 14.1695 11.8889 14.4767 11.7038 14.7829C11.3835 15.3136 11.0617 15.8433 10.7405 16.373C10.7021 16.436 10.6598 16.4969 10.6219 16.5603C10.5902 16.6132 10.6087 16.6502 10.6686 16.6529C10.7881 16.6582 10.9084 16.6687 11.0269 16.6617C11.16 16.6537 11.2861 16.6943 11.4165 16.6983C11.4557 16.6996 11.4817 16.7269 11.4817 16.7644C11.4826 16.9067 11.4817 17.0491 11.4764 17.1914C11.4742 17.2535 11.431 17.2937 11.3632 17.2976C11.2953 17.302 11.2257 17.3033 11.1587 17.2919C11.0904 17.2804 11.0238 17.276 10.9555 17.2835C10.9163 17.2879 10.8744 17.291 10.8361 17.2826C10.6898 17.2491 10.5413 17.2619 10.3936 17.2571C10.1266 17.2487 9.85817 17.2505 9.59286 17.2245C9.31477 17.1976 9.03713 17.1892 8.75816 17.1839C8.62727 17.1817 8.49682 17.1711 8.36637 17.1632C8.32979 17.161 8.31878 17.1403 8.32935 17.1042C8.34081 17.0658 8.35624 17.0306 8.37783 16.9957C8.58893 16.6586 8.79871 16.3201 9.0076 15.9817C9.30023 15.5079 9.59242 15.0337 9.88417 14.5591C10.1521 14.1232 10.4192 13.6865 10.6863 13.2502C10.7427 13.1581 10.7991 13.0664 10.8528 12.9725C10.8758 12.9324 10.852 12.8914 10.8052 12.8875C10.7656 12.8839 10.7255 12.8844 10.6858 12.8844C9.73962 12.8844 8.79386 12.8844 7.84766 12.8844C7.79654 12.8844 7.74498 12.8857 7.6943 12.8906C7.66124 12.8936 7.6348 12.9368 7.64758 12.9677C7.66741 13.0148 7.69033 13.0607 7.71457 13.1061C7.79698 13.2616 7.88115 13.4163 7.96357 13.5719C7.99309 13.6279 7.98737 13.6574 7.93624 13.6865C7.808 13.7596 7.67843 13.8306 7.54754 13.8998C7.50523 13.9222 7.4713 13.913 7.44133 13.876C7.42018 13.8495 7.3999 13.8213 7.38404 13.7914C7.20687 13.4555 7.03191 13.1188 6.85431 12.783C6.72959 12.5472 6.6009 12.3137 6.4753 12.0783C6.35234 11.8478 6.23115 11.6165 6.10819 11.386C6.07602 11.326 6.03768 11.2692 6.00507 11.2093C5.99229 11.1859 6.00507 11.1656 6.02798 11.1542C6.07073 11.1321 6.11701 11.1387 6.1624 11.1392C6.42462 11.1409 6.6864 11.1449 6.94862 11.1467C7.50699 11.1506 8.06537 11.1533 8.62375 11.1568C8.64666 11.1568 8.67046 11.1533 8.69206 11.1586C8.92872 11.2137 9.16846 11.1841 9.40688 11.1872C9.83966 11.1921 10.2715 11.2282 10.7043 11.2123C10.7158 11.2119 10.7272 11.2119 10.7387 11.2123C11.0128 11.2225 10.9485 11.1696 10.8652 11.0079C10.777 10.8364 10.6832 10.6681 10.5924 10.498C10.5095 10.3428 10.4267 10.1881 10.3447 10.0326C10.1728 9.70644 10.0014 9.37944 9.82952 9.05332C9.78192 8.96253 9.73212 8.87307 9.68365 8.78272C9.60828 8.64258 9.53425 8.50199 9.458 8.36229C9.4417 8.33276 9.42275 8.30367 9.40027 8.27855C9.37868 8.2552 9.34783 8.25343 9.32535 8.27767C9.29847 8.30676 9.27379 8.33805 9.25263 8.37154C9.14907 8.5346 9.04727 8.69899 8.94414 8.86249C8.90536 8.92419 8.84454 8.9405 8.78328 8.90171C8.66826 8.82856 8.55588 8.75143 8.44173 8.67739C8.40736 8.65492 8.40339 8.62231 8.40648 8.58793C8.41088 8.54033 8.44306 8.50596 8.46774 8.46762C8.659 8.17146 8.84939 7.87443 9.04021 7.57827C9.26497 7.23011 9.49106 6.88239 9.71582 6.53424C9.8022 6.4007 9.88637 6.26585 9.97231 6.13187C9.9939 6.09838 10.0159 6.06488 10.0419 6.03536C10.0891 5.98159 10.1142 5.98908 10.1508 6.05827C10.2786 6.2989 10.4073 6.53952 10.536 6.77971C10.7801 7.2354 11.0243 7.69065 11.2684 8.1459C11.5421 8.65624 11.8158 9.16702 12.0899 9.67736C12.1842 9.85232 12.2794 10.0268 12.3746 10.2014C12.3856 10.2212 12.3962 10.2415 12.4094 10.2595C12.4367 10.2961 12.4835 10.293 12.5064 10.2525C12.5597 10.1582 12.6121 10.0639 12.6624 9.96822C12.7787 9.74699 12.8911 9.52443 13.011 9.30496C13.2309 8.90127 13.4358 8.48877 13.6482 8.08112C13.7245 7.93524 13.8051 7.79157 13.8836 7.64702C13.8972 7.6219 13.9136 7.59854 13.925 7.57254C13.944 7.53023 13.9224 7.48969 13.8783 7.48396C13.8501 7.48043 13.8214 7.47911 13.7932 7.47955C13.5998 7.48352 13.4059 7.46942 13.2124 7.49013C13.1785 7.49366 13.1441 7.49277 13.1101 7.49057C13.0634 7.48748 13.0387 7.46325 13.0357 7.41389C13.0321 7.35704 13.033 7.30018 13.033 7.24289C13.0326 7.1574 13.0308 7.0719 13.0339 6.9864C13.037 6.89606 13.0581 6.87534 13.1463 6.87446C13.3058 6.8727 13.4654 6.87402 13.6249 6.87446C13.7672 6.87446 13.91 6.8749 14.0524 6.87446C14.1546 6.87402 14.2564 6.87975 14.3578 6.85066C14.4054 6.837 14.4596 6.84405 14.5107 6.84405C14.7901 6.84361 15.0691 6.84537 15.3485 6.84317C15.5763 6.84141 15.8042 6.83568 16.032 6.83171C16.0607 6.83127 16.0889 6.83039 16.1175 6.83259C16.1537 6.83524 16.1766 6.87358 16.1612 6.9084C16.136 6.96525 16.11 7.0221 16.0805 7.07719C15.8302 7.54257 15.579 8.00752 15.3282 8.47246C15.1264 8.84707 14.9254 9.22211 14.7227 9.59671C14.5173 9.9766 14.3106 10.3552 14.1057 10.7351C14.0356 10.8646 13.9673 10.9955 13.8999 11.1268C13.8686 11.1877 13.8915 11.2264 13.962 11.2269C14.1956 11.2278 14.4292 11.2256 14.6628 11.2238C14.7139 11.2234 14.7654 11.2198 14.8166 11.2194C15.5345 11.2167 16.2524 11.2145 16.9707 11.2119C17.1796 11.211 17.1801 11.211 17.0761 11.0281C16.9778 10.8554 16.8786 10.6831 16.7795 10.5107C16.7429 10.4468 16.7438 10.4169 16.7975 10.3798C16.9289 10.2895 17.0659 10.2093 17.2114 10.1432C17.2422 10.1291 17.2678 10.1353 17.2845 10.1626C17.3348 10.245 17.3837 10.3283 17.4317 10.412C17.6657 10.8206 17.8989 11.23 18.1333 11.6385C18.3404 11.9981 18.5493 12.3569 18.7569 12.7165C18.7737 12.7456 18.7873 12.7773 18.7988 12.809C18.805 12.8266 18.7926 12.8443 18.7763 12.8491C18.7494 12.8566 18.7212 12.8615 18.693 12.8619C18.2774 12.8703 17.8623 12.8778 17.4467 12.8848C17.3555 12.8861 17.2642 12.8848 17.173 12.8848C17.0932 12.8848 17.0144 12.8822 16.9359 12.906C16.8989 12.9174 16.857 12.9152 16.8174 12.9152C16.2303 12.9196 15.6438 12.9218 15.0567 12.9271C14.7037 12.9302 14.3507 12.9381 13.9973 12.9443C13.9744 12.9448 13.9515 12.9461 13.9294 12.9492C13.8915 12.9549 13.8699 12.991 13.8845 13.0236C13.8915 13.0391 13.9008 13.0536 13.9091 13.0682C14.241 13.6437 14.5733 14.2197 14.9051 14.7953C15.0669 15.076 15.2286 15.3567 15.3908 15.637C15.4049 15.6617 15.4186 15.6868 15.4349 15.7102C15.4657 15.7543 15.5138 15.7538 15.5459 15.7062C15.5812 15.6547 15.6116 15.6 15.6442 15.5467C15.7359 15.3964 15.828 15.2466 15.9201 15.0967C15.9342 15.0738 15.9505 15.0513 15.9717 15.0196ZM10.1116 12.322C10.1116 12.3256 10.1116 12.3286 10.1116 12.3322C10.1856 12.3322 10.2596 12.3313 10.3337 12.3322C10.8233 12.3392 11.3134 12.315 11.8026 12.3511C11.9268 12.3604 11.9405 12.3829 11.8735 12.4948C11.8268 12.5728 11.7801 12.6512 11.7325 12.7288C11.4848 13.1307 11.2371 13.5331 10.989 13.9346C10.7136 14.3797 10.4368 14.8235 10.1623 15.2686C9.95909 15.5978 9.75813 15.9279 9.55584 16.2576C9.50516 16.34 9.45272 16.4211 9.4038 16.5043C9.36766 16.566 9.3963 16.6158 9.4699 16.6211C9.55496 16.6273 9.6409 16.6286 9.72551 16.637C9.82688 16.6471 9.89519 16.6154 9.94895 16.5215C10.0785 16.2946 10.2209 16.0742 10.3562 15.8503C10.562 15.5097 10.7651 15.1672 10.9714 14.8266C11.2424 14.3788 11.5157 13.9324 11.7876 13.4855C11.9502 13.2184 12.1128 12.9509 12.2754 12.6834C12.2962 12.6495 12.3111 12.6125 12.3464 12.5887C12.3702 12.5728 12.4077 12.5728 12.4231 12.5948C12.4359 12.6133 12.4451 12.6345 12.4566 12.6539C12.6655 13.0188 12.8744 13.3837 13.0833 13.749C13.3825 14.2726 13.6809 14.7962 13.9801 15.3193C14.2313 15.7587 14.4829 16.1976 14.7346 16.6366C14.7628 16.6859 14.791 16.7353 14.8227 16.7824C14.8452 16.8155 14.8866 16.8155 14.9078 16.782C14.9779 16.6714 15.047 16.5603 15.1123 16.4471C15.1374 16.4034 15.1171 16.3611 15.0924 16.3193C15.0197 16.1972 14.951 16.0729 14.8796 15.9495C14.6204 15.5017 14.3613 15.054 14.1022 14.6062C13.7064 13.9218 13.3107 13.2374 12.9158 12.5525C12.8902 12.5085 12.8678 12.4622 12.8462 12.4159C12.8343 12.3899 12.8563 12.3591 12.8863 12.3551C12.8977 12.3538 12.9087 12.352 12.9202 12.352C13.1762 12.3507 13.4323 12.3414 13.6883 12.3357C14.3203 12.3212 14.9532 12.3251 15.5856 12.322C15.62 12.322 15.6539 12.3229 15.6883 12.322C15.7165 12.3212 15.7469 12.3247 15.7729 12.3154C15.8562 12.2868 15.9417 12.2947 16.0272 12.2943C16.5684 12.2894 17.1096 12.2846 17.6503 12.2797C17.6732 12.2797 17.6961 12.2797 17.7186 12.2771C17.7697 12.2718 17.7918 12.2361 17.768 12.1951C17.7085 12.0915 17.6437 11.9911 17.5882 11.8857C17.5569 11.8262 17.5124 11.806 17.4502 11.8069C17.4106 11.8077 17.3705 11.8064 17.3303 11.8069C16.9602 11.8099 16.59 11.813 16.2193 11.8161C15.8033 11.8192 15.3873 11.8188 14.9717 11.8267C14.4882 11.8355 14.0043 11.8029 13.5209 11.8496C13.3287 11.8681 13.1335 11.8527 12.94 11.8527C12.9228 11.8527 12.9057 11.8518 12.8889 11.85C12.8581 11.8465 12.8369 11.8165 12.847 11.7897C12.855 11.7685 12.8651 11.7482 12.8761 11.7284C12.9964 11.5028 13.1168 11.2771 13.2379 11.0519C13.4891 10.587 13.7421 10.1225 13.9929 9.65708C14.1978 9.27675 14.4001 8.89466 14.6046 8.51389C14.739 8.26357 14.8756 8.01413 15.0096 7.76381C15.055 7.67875 15.0968 7.59149 15.1383 7.50379C15.1524 7.47382 15.1343 7.44385 15.1026 7.44253C15.0171 7.43989 14.9311 7.44606 14.8465 7.4368C14.7218 7.42314 14.6367 7.46721 14.5878 7.58268C14.579 7.60339 14.5623 7.62014 14.5513 7.63997C14.3388 8.02955 14.1273 8.41914 13.9149 8.80872C13.7408 9.12824 13.5667 9.44731 13.3913 9.76594C13.0952 10.304 12.7986 10.8413 12.502 11.3789C12.4826 11.4137 12.4649 11.4494 12.4434 11.4825C12.4284 11.5054 12.4015 11.5063 12.3847 11.4891C12.3574 11.4605 12.3327 11.4283 12.3138 11.3939C12.2724 11.3194 12.2367 11.2419 12.1961 11.1669C11.9537 10.7165 11.7096 10.267 11.4676 9.81618C11.2609 9.431 11.0573 9.04362 10.8511 8.658C10.6391 8.26225 10.4258 7.86693 10.2125 7.47162C10.1693 7.39141 10.1248 7.31208 10.0781 7.23408C10.0503 7.1878 10.0129 7.18472 9.98421 7.22659C9.91061 7.335 9.84054 7.44518 9.77046 7.55579C9.75151 7.5862 9.7524 7.6219 9.76606 7.65495C9.77928 7.68624 9.79514 7.71665 9.81101 7.74706C10.0001 8.10359 10.1887 8.45968 10.3786 8.81578C10.5391 9.11678 10.7012 9.4169 10.8621 9.7179C10.9665 9.91314 11.071 10.1088 11.1746 10.3049C11.4134 10.7575 11.6514 11.2106 11.8911 11.6627C11.9683 11.8086 11.9612 11.8254 11.799 11.8249C11.446 11.8236 11.0926 11.8188 10.7396 11.8165C10.1415 11.813 9.54306 11.8104 8.94458 11.8069C8.89919 11.8064 8.85159 11.8135 8.8084 11.8029C8.67311 11.7703 8.53649 11.7817 8.39987 11.7804C8.21169 11.7791 8.02394 11.7804 7.83576 11.78C7.7961 11.78 7.75511 11.7831 7.71677 11.7747C7.50788 11.7297 7.29678 11.7619 7.08656 11.754C7.03368 11.7518 7.00591 11.8011 7.03147 11.85C7.09714 11.9761 7.16677 12.1004 7.23464 12.2251C7.25888 12.2696 7.29634 12.2903 7.3457 12.2921C7.38536 12.2934 7.42546 12.2938 7.46513 12.2938C7.77274 12.2938 8.08035 12.2938 8.38841 12.2938C8.4338 12.2938 8.48228 12.2863 8.52459 12.2987C8.62551 12.3287 8.72775 12.3212 8.83 12.3212C9.1949 12.322 9.55937 12.3216 9.92427 12.3216C9.98641 12.322 10.049 12.322 10.1116 12.322Z" fill="white"/>
</svg>
