<svg width="30" height="24" viewBox="0 0 30 24" fill="none" xmlns="http://www.w3.org/2000/svg">
<path d="M29.4708 2.85874C28.3653 3.34548 27.1941 3.66677 25.995 3.81227C27.2575 3.05345 28.2028 1.86344 28.6563 0.462006C27.4862 1.14485 26.1894 1.64192 24.8089 1.91875C23.8982 0.944835 22.6913 0.298887 21.3758 0.0812117C20.0603 -0.136463 18.7097 0.0863165 17.5338 0.714956C16.3578 1.3436 15.4224 2.34292 14.8726 3.55774C14.3229 4.77256 14.1897 6.13491 14.4936 7.43322C9.46146 7.19576 5.00387 4.7781 2.01779 1.1264C1.47495 2.04894 1.1918 3.10116 1.19837 4.17154C1.19837 6.27545 2.26878 8.12468 3.89039 9.21108C2.92931 9.18049 1.98945 8.92064 1.14915 8.45318V8.52701C1.14861 9.92517 1.63179 11.2805 2.51671 12.363C3.40163 13.4455 4.63379 14.1885 6.00415 14.4659C5.1162 14.7039 4.18619 14.7396 3.2826 14.5705C3.67154 15.7738 4.42642 16.8257 5.44189 17.5794C6.45737 18.333 7.68279 18.7509 8.94717 18.7747C6.80576 20.4553 4.16166 21.3674 1.43952 21.3646C0.95968 21.3646 0.48107 21.3363 0 21.2821C2.77533 23.0592 6.00232 24.0025 9.29782 24C20.4363 24 26.5204 14.7772 26.5204 6.79343C26.5204 6.53506 26.5204 6.27668 26.5019 6.0183C27.6904 5.16304 28.7156 4.10118 29.5286 2.88335L29.4708 2.85874Z" fill="#96A4A9"/>
</svg>
